<svg xmlns="http://www.w3.org/2000/svg" width="64" height="64" viewBox="0 0 64 64" role="img" aria-labelledby="title desc">
  <title id="title">grenadine ingredient icon</title>
  <desc id="desc">A premium filled badge style SVG icon for grenadine using EBTL brand colors.</desc>
  <rect x="4" y="4" width="56" height="56" rx="18" fill="#FFF8EE"/>
  <ellipse cx="32" cy="50" rx="18" ry="5" fill="#0E2238" opacity="0.12"/>
  
  <path d="M25 15h14v9l4 5v17c0 5-4 8-9 8h-4c-5 0-9-3-9-8V29l4-5v-9Z" fill="#F35F4B" stroke="#0E2238" stroke-width="2.6" stroke-linejoin="round"/>
  <path d="M26 10h12v7H26z" fill="#E7BD68" stroke="#0E2238" stroke-width="2.4" stroke-linejoin="round"/>
  <path d="M25 34c4 4 10-4 18 0v12c0 5-4 8-9 8h-4c-5 0-9-3-9-8V34Z" fill="#0E2238" opacity="0.16"/>
  <circle cx="32" cy="39" r="7" fill="#FFF8EE" stroke="#0E2238" stroke-width="2" opacity="0.95"/>
  <circle cx="32" cy="39" r="3" fill="#F35F4B"/>

</svg>
